<svg width="281" height="184" viewBox="0 0 281 184" fill="none" xmlns="http://www.w3.org/2000/svg">
<path d="M194.84 102.894C192.797 104.455 190.921 106.226 189.241 108.179C188.429 109.147 187.68 110.167 186.998 111.232L186.494 112.032L186.062 112.84C185.769 113.381 185.505 113.937 185.27 114.505C184.301 116.801 183.739 119.249 183.61 121.737C183.443 124.198 183.772 126.666 184.58 128.99L184.922 129.885C185.028 130.187 185.193 130.457 185.323 130.746C185.597 131.317 185.911 131.866 186.262 132.391C186.34 132.528 186.431 132.658 186.534 132.776L186.825 133.146C187.01 133.401 187.21 133.644 187.423 133.874C187.85 134.331 188.302 134.764 188.775 135.172C189.252 135.562 189.762 135.909 190.299 136.209C190.82 136.514 191.368 136.769 191.937 136.97C193.01 137.369 194.165 137.496 195.3 137.34C196.845 137.063 198.269 136.31 199.373 135.184C199.987 134.592 200.531 133.93 200.994 133.212C201.118 133.035 201.225 132.845 201.341 132.662C201.446 132.472 201.54 132.276 201.641 132.084C201.857 131.706 202.045 131.313 202.205 130.908C202.353 130.498 202.541 130.102 202.665 129.681L203.016 128.409L203.243 127.103C203.324 126.668 203.32 126.219 203.366 125.778C203.461 123.991 203.282 122.2 202.836 120.47C201.961 117.01 200.004 113.929 197.254 111.683L196.188 110.945C196.01 110.819 195.824 110.705 195.631 110.603C195.439 110.498 195.255 110.377 195.057 110.283C194.279 109.878 193.467 109.542 192.632 109.276C190.94 108.758 189.178 108.504 187.408 108.522C183.767 108.604 180.188 109.511 176.935 111.175C173.614 112.804 170.602 115.009 168.037 117.688C165.48 120.488 163.233 123.56 161.336 126.849C159.392 130.173 157.669 133.668 155.968 137.231C153.835 141.607 151.771 146.053 149.263 150.443C147.973 152.755 146.367 154.874 144.494 156.739C143.496 157.704 142.385 158.542 141.187 159.236C139.991 159.916 138.725 160.464 137.412 160.868C136.127 161.247 134.813 161.513 133.484 161.666C132.188 161.8 130.885 161.854 129.583 161.827C127.05 161.759 124.528 161.485 122.041 161.007C117.168 160.109 112.474 158.856 107.8 157.876C103.136 156.883 98.4616 156.193 93.8558 156.366C91.548 156.457 89.25 156.729 86.9829 157.181C82.4407 158.109 78.0734 159.767 74.0487 162.092C72.0482 163.258 70.1384 164.575 68.3359 166.033C66.5478 167.498 64.8827 169.11 63.3575 170.851L62.2388 172.174L61.1927 173.559C60.8323 174.011 60.5256 174.504 60.1991 174.981C59.8763 175.462 59.5444 175.936 59.2588 176.441C57.7888 178.833 56.5181 181.343 55.4598 183.946C54.4164 186.55 53.611 189.243 53.0535 191.993C52.8994 192.643 52.807 193.274 52.6961 193.875C52.5851 194.475 52.468 195.048 52.3968 195.6C52.3129 196.15 52.2253 196.675 52.1341 197.175C52.067 197.675 52.0019 198.152 51.9291 198.605C51.7648 199.511 51.6747 200.323 51.5378 201.051C51.3902 201.781 51.2877 202.422 51.1558 202.988C50.7717 204.637 50.2347 204.736 49.6681 203.348C49.4994 202.919 49.3567 202.48 49.241 202.034C49.1219 201.504 49.0173 200.883 48.9155 200.176C48.704 198.44 48.6564 196.687 48.7733 194.94C48.9602 192.245 49.3999 189.572 50.0864 186.958C50.7972 184.303 51.7541 181.721 52.9444 179.245C55.6206 173.619 59.3996 168.594 64.0528 164.475C68.6949 160.403 74.0678 157.266 79.8781 155.235C85.6756 153.181 91.8165 152.312 97.9411 152.678C104.033 153.051 109.891 154.422 115.627 155.661C118.789 156.336 122.024 157.02 125.155 157.425C126.698 157.628 128.25 157.743 129.806 157.77C131.285 157.787 132.763 157.676 134.224 157.439C136.436 157.102 138.54 156.243 140.365 154.932C142.184 153.499 143.726 151.74 144.911 149.743C146.198 147.615 147.379 145.422 148.448 143.175C149.564 140.906 150.637 138.597 151.724 136.276C153.87 131.539 156.322 126.947 159.063 122.531C160.489 120.294 162.083 118.171 163.832 116.18C168.275 111.086 174.104 107.419 180.59 105.637C184.543 104.529 188.708 104.469 192.681 105.463C194.684 105.997 196.589 106.851 198.323 107.991C200.074 109.131 201.606 110.579 202.847 112.266C204.094 113.918 205.079 115.755 205.77 117.712C206.449 119.663 206.856 121.701 206.979 123.766C207.078 125.62 206.934 127.48 206.55 129.297C206.127 131.129 205.447 132.892 204.528 134.531C203.569 136.194 202.329 137.675 200.863 138.908C200.092 139.546 199.243 140.082 198.338 140.504C197.4 140.935 196.404 141.222 195.383 141.355C193.378 141.584 191.35 141.291 189.493 140.505C188.596 140.14 187.74 139.683 186.937 139.14C186.536 138.874 186.15 138.588 185.778 138.283C185.397 137.987 185.076 137.641 184.723 137.32L184.208 136.827C184.034 136.665 183.895 136.471 183.737 136.294C183.432 135.93 183.12 135.57 182.827 135.197C181.722 133.668 180.833 131.99 180.186 130.213C179.89 129.329 179.645 128.428 179.453 127.516C179.26 126.61 179.119 125.694 179.033 124.771C178.984 124.312 178.984 123.851 178.959 123.391L178.931 122.701C178.931 122.472 178.943 122.242 178.949 122.013C178.985 120.18 179.212 118.355 179.627 116.569C180.048 114.785 180.641 113.046 181.398 111.376C182.188 109.739 183.117 108.173 184.173 106.696C186.281 103.819 188.777 101.252 191.587 99.0683C192.958 97.9812 194.383 96.9647 195.855 96.0229C197.314 95.0735 198.811 94.2003 200.326 93.3761C205.175 90.7402 210.077 88.8117 214.728 87.0009C219.382 85.1886 223.84 83.5584 227.965 81.6484C229.856 80.7636 230.812 80.4128 230.887 80.7937C230.91 80.964 230.726 81.3367 230.284 81.8556C230.02 82.174 229.737 82.4761 229.437 82.7601C229.041 83.151 228.623 83.5185 228.185 83.8609C227.484 84.401 226.773 84.9407 226.046 85.4606C225.689 85.7357 225.3 85.95 224.922 86.1871C224.542 86.4182 224.161 86.6578 223.776 86.8823C222.236 87.7919 220.669 88.6614 219.077 89.4906C215.891 91.1306 212.659 92.6506 209.514 94.1961C206.928 95.4727 204.354 96.7322 201.872 98.1377C199.407 99.5021 197.049 101.058 194.822 102.791C194.829 102.825 194.835 102.856 194.84 102.894Z" fill="black"/>
<path d="M221.866 92.0016C222.601 90.3694 223.423 88.7783 224.329 87.2352C224.555 86.828 224.795 86.4302 225.032 86.0346C225.266 85.6359 225.484 85.2302 225.689 84.8232C226.371 83.4066 227.094 82.0282 227.83 80.6607C228.2 79.979 228.573 79.3005 228.955 78.6309L229.531 77.6275C229.719 77.2919 229.921 76.9644 230.133 76.6435L232.723 80.8968L231.489 80.9998L230.866 81.0496L230.552 81.0738L230.396 81.0858L230.318 81.093L230.298 81.0956L230.293 81.0963C230.292 81.0868 230.294 81.118 230.289 81.0751L230.287 81.0745L230.276 81.0717L230.236 81.06C229.823 80.9259 229.385 80.8862 228.954 80.9437C228.533 80.966 228.109 80.9991 227.683 81.0428C226.219 81.1759 224.726 81.3073 223.22 81.3672C221.697 81.4269 220.172 81.4054 218.651 81.3025C215.54 81.0961 212.48 80.4262 209.568 79.3147C209.345 79.2348 209.128 79.1421 208.916 79.0369C208.706 78.9236 208.501 78.8023 208.299 78.6761C207.895 78.4205 207.5 78.1581 207.125 77.8758C206.803 77.6119 206.557 77.2671 206.41 76.876C206.263 76.485 206.221 76.0614 206.289 75.6479C206.302 75.3702 206.374 75.0982 206.498 74.8495C206.623 74.6009 206.798 74.3811 207.011 74.2042C207.225 74.0274 207.473 73.8975 207.739 73.823C208.005 73.7484 208.284 73.7308 208.557 73.7713C209.253 73.936 209.922 74.1988 210.544 74.5519C211.993 75.3078 213.544 75.8476 215.148 76.1544C216.766 76.4585 218.415 76.5632 220.06 76.4662C220.973 76.3403 221.897 76.3198 222.814 76.4051C224.257 76.6298 225.725 76.6622 227.178 76.5013C227.545 76.4669 227.912 76.4454 228.281 76.3814L228.834 76.3001C229.017 76.265 229.199 76.2161 229.381 76.1695C229.553 76.0701 229.735 75.9889 229.924 75.9272L230.482 75.855C230.852 75.8101 231.233 75.7718 231.611 75.7439L232.241 75.6923L232.346 75.6838C232.794 75.6471 233.243 75.7384 233.641 75.9473C234.04 76.1561 234.371 76.4741 234.597 76.8647C234.824 77.2553 234.936 77.7027 234.921 78.1557C234.907 78.6087 234.765 79.0489 234.514 79.4259C233.396 81.1044 232.391 82.8527 231.358 84.5591C230.333 86.2324 229.365 87.9241 228.469 89.6359C227.567 91.3233 226.802 93.0805 226.18 94.8905C225.704 96.3932 224.838 97.7422 223.673 98.7979C223.538 98.9334 223.374 99.0367 223.194 99.1003C223.013 99.1638 222.822 99.1861 222.632 99.1653C222.428 99.136 222.231 99.0654 222.054 98.9578C221.951 98.8963 221.854 98.8257 221.763 98.7468C221.678 98.6652 221.547 98.5667 221.527 98.4652C221.312 97.8913 221.187 97.2866 221.156 96.673C221.114 96.0705 221.119 95.4654 221.171 94.8632C221.232 94.3757 221.335 93.8944 221.479 93.4248C221.632 92.9602 221.805 92.502 221.95 92.0383L221.866 92.0016Z" fill="black"/>
</svg>
