<svg width="291" height="153" viewBox="0 0 291 153" fill="none" xmlns="http://www.w3.org/2000/svg">
<rect x="-84" width="364" height="153" rx="76.5" fill="#203470"/>
<path opacity="0.663" fill-rule="evenodd" clip-rule="evenodd" d="M180.954 31.3224C177.224 29.6586 173.39 29.403 169.451 30.5555C170.773 29.2806 172.435 28.5137 174.436 28.2549C177.046 28.5404 179.219 29.5629 180.954 31.3224Z" fill="white"/>
<path fill-rule="evenodd" clip-rule="evenodd" d="M180.954 31.3235C181.977 31.3235 182.488 31.8347 182.488 32.8572C182.432 34.0281 182.944 34.795 184.022 35.1578C185.669 39.9383 184.646 44.1561 180.954 47.8112C179.785 48.5847 178.506 48.9681 177.12 48.9615C174.667 48.5508 172.622 49.062 170.985 50.4952C168.67 55.1262 166.369 59.7274 164.083 64.2989C163.021 65.4088 163.276 66.1757 164.85 66.5995C167.91 68.3571 170.083 70.9134 171.368 74.2682C177.61 72.3586 183.873 70.4414 190.157 68.5167C190.723 65.8426 191.363 63.1585 192.074 60.4646C192.617 59.7893 193.256 59.2781 193.991 58.9308C195.474 58.4628 196.753 57.6959 197.825 56.6302C201.014 56.5011 204.082 57.0123 207.028 58.164C207.764 59.6676 208.786 60.9457 210.095 61.9983C212.315 66.1448 211.804 69.9791 208.562 73.5014C207.391 73.4454 206.624 73.9567 206.261 75.0351C205.94 75.5885 205.43 75.9719 204.727 76.1854C202.171 76.6967 199.615 76.6967 197.059 76.1854C195.312 74.6835 193.395 73.5332 191.307 72.7345C184.503 74.4671 177.73 76.2565 170.985 78.1026C171.251 82.6762 169.717 86.5106 166.384 89.6057C169.812 94.9508 173.391 100.192 177.12 105.327C183.422 104.068 188.151 106.241 191.307 111.845C191.435 112.995 191.562 114.146 191.69 115.296C191.816 117.247 191.305 118.908 190.157 120.281C189.079 120.643 188.567 121.41 188.623 122.581C188.623 123.093 188.368 123.348 187.856 123.348C183.08 125.57 178.479 125.315 174.052 122.581C171.672 120.944 170.65 118.643 170.985 115.679C170.83 112.54 171.852 109.856 174.052 107.627C170.663 102.38 167.084 97.2682 163.316 92.2897C161.406 92.0911 159.489 92.2184 157.565 92.6732C153.7 92.0581 149.993 91.1632 146.445 89.9891C143.25 92.6732 140.055 95.3572 136.859 98.0413C138.533 102.54 138.021 106.886 135.325 111.078C126.039 116.988 119.777 114.688 116.537 104.176C116.827 102.476 117.338 100.942 118.071 99.575C119.86 98.2966 121.394 96.7629 122.672 94.9738C126.414 92.983 130.12 93.2383 133.792 95.7406C137.371 92.6732 140.949 89.6057 144.528 86.5382C143.475 82.3139 143.219 77.9682 143.761 73.5014C143.932 71.6756 144.827 70.3975 146.445 69.667C148.49 68.9001 148.49 68.1333 146.445 67.3664C142.138 62.801 137.792 58.1998 133.408 53.5627C130.433 53.4955 127.365 53.3678 124.206 53.1793C121.258 52.1465 119.213 50.2294 118.071 47.4278C117.944 44.8588 118.072 42.3026 118.454 39.759C119.732 37.8452 121.138 36.0558 122.672 34.3909C122.934 33.7482 123.445 33.4925 124.206 33.6241C127.394 33.4949 130.462 34.0062 133.408 35.1578C136.211 37.0511 137.745 39.7351 138.01 43.21C137.183 45.9255 136.543 48.6096 136.092 51.2621C138.933 53.9735 141.617 56.7854 144.144 59.6977C145.608 62.4432 147.652 64.7438 150.279 66.5995C153.457 65.3589 156.781 64.7199 160.249 64.6824C160.825 64.1679 161.082 63.5289 161.016 62.7652C162.82 59.1567 164.609 55.578 166.384 52.029C168.468 50.586 168.98 48.7965 167.917 46.6609C165.574 44.8429 164.296 42.4144 164.083 39.3756C164.52 37.2625 165.287 35.3453 166.384 33.6241C167.662 32.8572 168.684 31.8347 169.451 30.5566C173.39 29.4041 177.224 29.6597 180.954 31.3235ZM180.954 40.5259C180.054 41.3033 179.543 42.3258 179.421 43.5934C178.493 43.9248 177.726 44.436 177.12 45.1271C174.177 45.494 171.621 44.7271 169.451 42.8265C167.431 37.4071 169.22 34.084 174.819 32.8572C179.05 33.6451 181.095 36.2013 180.954 40.5259ZM133.408 45.894C132.33 46.2568 131.819 47.0237 131.875 48.1946C129.371 48.8267 126.815 49.0824 124.206 48.9615C120.143 45.3124 120.143 41.6058 124.206 37.8419C130.735 36.5748 133.802 39.2588 133.408 45.894ZM195.525 69.667C194.503 67.3664 194.503 65.0658 195.525 62.7652C203.053 58.1715 206.76 60.2166 206.644 68.9001C203.194 72.6699 199.488 72.9255 195.525 69.667ZM154.881 69.667C164.435 70.0112 167.503 74.6124 164.083 83.4707C158.24 88.6916 153.256 87.9247 149.129 81.1701C147.803 75.6412 149.72 71.8068 154.881 69.667ZM124.206 98.0413C132.566 97.3181 135.123 100.769 131.875 108.394C128.579 110.99 125.383 110.863 122.289 108.011C120.453 104.197 121.092 100.874 124.206 98.0413ZM178.654 109.544C183.57 108.84 186.638 110.885 187.856 115.679C184.332 123.044 180.114 123.556 175.203 117.213C174.495 113.775 175.645 111.218 178.654 109.544Z" fill="white"/>
<path opacity="0.663" fill-rule="evenodd" clip-rule="evenodd" d="M169.451 30.5601C168.684 31.8382 167.662 32.8607 166.384 33.6275C166.639 31.8382 167.662 30.8157 169.451 30.5601Z" fill="white"/>
<path opacity="0.282" fill-rule="evenodd" clip-rule="evenodd" d="M124.206 33.6261C126.356 32.7536 128.657 32.6257 131.108 33.2427C132.214 33.5316 132.981 34.1707 133.409 35.1598C130.462 34.0082 127.395 33.497 124.206 33.6261Z" fill="white"/>
<path opacity="0.561" fill-rule="evenodd" clip-rule="evenodd" d="M182.488 32.8594C183.566 33.2222 184.077 33.9891 184.021 35.16C182.943 34.7972 182.432 34.0303 182.488 32.8594Z" fill="white"/>
<path opacity="0.561" fill-rule="evenodd" clip-rule="evenodd" d="M180.954 40.5269C181.161 41.9683 180.65 42.9908 179.42 43.5943C179.543 42.3267 180.053 41.3042 180.954 40.5269Z" fill="white"/>
<path fill-rule="evenodd" clip-rule="evenodd" d="M122.672 34.3926C121.138 36.0575 119.732 37.8468 118.454 39.7607C118.072 42.3042 117.944 44.8604 118.071 47.4294C116.2 44.7901 116.072 41.9782 117.687 38.9938C118.765 36.7633 120.426 35.2295 122.672 34.3926Z" fill="white"/>
<path opacity="0.416" fill-rule="evenodd" clip-rule="evenodd" d="M169.451 42.8257C171.621 44.7263 174.177 45.4932 177.12 45.1263C175.488 45.9922 173.699 46.12 171.752 45.5097C170.275 45.1858 169.508 44.2911 169.451 42.8257Z" fill="white"/>
<path opacity="0.42" fill-rule="evenodd" clip-rule="evenodd" d="M133.408 45.8945C133.464 47.0655 132.952 47.8323 131.874 48.1951C131.818 47.0242 132.33 46.2573 133.408 45.8945Z" fill="white"/>
<path opacity="0.137" fill-rule="evenodd" clip-rule="evenodd" d="M131.875 48.1973C129.534 50.8656 126.978 51.1212 124.206 48.9641C126.815 49.085 129.372 48.8293 131.875 48.1973Z" fill="white"/>
<path opacity="0.043" fill-rule="evenodd" clip-rule="evenodd" d="M177.119 48.9649C175.162 49.5438 173.116 50.0551 170.984 50.4986C172.622 49.0653 174.667 48.5541 177.119 48.9649Z" fill="white"/>
<path opacity="0.196" fill-rule="evenodd" clip-rule="evenodd" d="M167.918 46.6592C168.98 48.7948 168.468 50.5843 166.384 52.0273C167.116 50.3051 167.628 48.5158 167.918 46.6592Z" fill="white"/>
<path opacity="0.29" fill-rule="evenodd" clip-rule="evenodd" d="M197.825 56.6323C199.716 55.7626 201.762 55.6348 203.96 56.2489C205.356 56.4026 206.378 57.0416 207.028 58.1661C204.081 57.0144 201.014 56.5032 197.825 56.6323Z" fill="white"/>
<path opacity="0.565" fill-rule="evenodd" clip-rule="evenodd" d="M197.826 56.6296C196.753 57.6954 195.474 58.4622 193.991 58.9303C194.682 57.2224 195.96 56.4555 197.826 56.6296Z" fill="white"/>
<path fill-rule="evenodd" clip-rule="evenodd" d="M207.027 58.1641C208.895 58.7547 209.918 60.0328 210.095 61.9984C208.786 60.9458 207.764 59.6677 207.027 58.1641Z" fill="white"/>
<path opacity="0.573" fill-rule="evenodd" clip-rule="evenodd" d="M144.145 59.6982C146.2 61.625 148.372 63.4144 150.663 65.0663C154.107 64.1203 157.558 63.3535 161.016 62.7657C161.082 63.5295 160.826 64.1685 160.249 64.6829C156.781 64.7204 153.457 65.3594 150.28 66.6001C147.652 64.7443 145.608 62.4437 144.145 59.6982Z" fill="white"/>
<path opacity="0.027" fill-rule="evenodd" clip-rule="evenodd" d="M164.083 64.2988C164.126 65.1493 164.382 65.9162 164.849 66.5994C163.276 66.1756 163.02 65.4087 164.083 64.2988Z" fill="white"/>
<path opacity="0.659" fill-rule="evenodd" clip-rule="evenodd" d="M195.524 62.7656C194.502 65.0662 194.502 67.3669 195.524 69.6675C194.379 69.0447 193.868 68.0221 193.99 66.6C193.941 65.0228 194.452 63.7447 195.524 62.7656Z" fill="white"/>
<path opacity="0.071" fill-rule="evenodd" clip-rule="evenodd" d="M146.445 67.3687C148.491 68.1355 148.491 68.9024 146.445 69.6693C146.445 68.9024 146.445 68.1355 146.445 67.3687Z" fill="white"/>
<path opacity="0.02" fill-rule="evenodd" clip-rule="evenodd" d="M208.561 73.5022C208.199 74.5806 207.432 75.0919 206.261 75.0359C206.623 73.9575 207.39 73.4462 208.561 73.5022Z" fill="white"/>
<path opacity="0.796" fill-rule="evenodd" clip-rule="evenodd" d="M122.672 94.9731C121.393 96.7623 119.859 98.296 118.07 99.5744C118.837 97.2738 120.371 95.74 122.672 94.9731Z" fill="white"/>
<path opacity="0.016" fill-rule="evenodd" clip-rule="evenodd" d="M190.156 120.283C190.212 121.454 189.701 122.221 188.622 122.584C188.566 121.413 189.078 120.646 190.156 120.283Z" fill="white"/>
<path opacity="0.843" fill-rule="evenodd" clip-rule="evenodd" d="M174.053 122.583C178.479 125.316 183.08 125.572 187.856 123.349C183.019 127.639 178.418 127.382 174.053 122.583Z" fill="white"/>
</svg>
