<svg width="84" height="126" viewBox="0 0 84 126" fill="none" xmlns="http://www.w3.org/2000/svg">
<g clip-path="url(#clip0_307_12835)">
<path d="M20.8375 125.321C32.3352 125.321 41.6666 115.99 41.6666 104.492V83.6631H20.8375C9.33977 83.6631 0.00830078 92.9946 0.00830078 104.492C0.00830078 115.99 9.33977 125.321 20.8375 125.321Z" fill="#0ACF83"/>
<path d="M0.00830078 62.834C0.00830078 51.3363 9.33977 42.0049 20.8375 42.0049H41.6666V83.6632H20.8375C9.33977 83.6632 0.00830078 74.3317 0.00830078 62.834Z" fill="#A259FF"/>
<path d="M0.00830078 21.1754C0.00830078 9.67766 9.33977 0.346191 20.8375 0.346191H41.6666V42.0045H20.8375C9.33977 42.0045 0.00830078 32.6731 0.00830078 21.1754Z" fill="#F24E1E"/>
<path d="M41.6665 0.346191H62.4957C73.9934 0.346191 83.3248 9.67766 83.3248 21.1754C83.3248 32.6731 73.9934 42.0045 62.4957 42.0045H41.6665V0.346191Z" fill="#FF7262"/>
<path d="M83.3248 62.8331C83.3248 74.3308 73.9934 83.6622 62.4957 83.6622C50.998 83.6622 41.6665 74.3308 41.6665 62.8331C41.6665 51.3354 50.998 42.0039 62.4957 42.0039C73.9934 42.0039 83.3248 51.3354 83.3248 62.8331Z" fill="#1ABCFE"/>
</g>
<defs>
<clipPath id="clip0_307_12835">
<rect width="83.3333" height="124.975" fill="white" transform="translate(0 0.346191)"/>
</clipPath>
</defs>
</svg>
