<svg width="170" height="173" viewBox="0 0 170 173" fill="none" xmlns="http://www.w3.org/2000/svg">
<path d="M137.053 171C137.308 170.92 137.562 170.839 137.824 170.756C149.026 167.103 158.351 158.889 164.175 147.303C168.197 139.007 169.604 130.271 169.599 120.867C169.6 120.217 169.601 119.568 169.602 118.918C169.605 117.137 169.605 115.357 169.605 113.576C169.606 111.654 169.608 109.732 169.61 107.809C169.615 103.608 169.617 99.406 169.618 95.2043C169.619 92.5787 169.62 89.9531 169.622 87.3276C169.626 80.0523 169.629 72.7771 169.63 65.5018C169.63 65.0365 169.63 64.5711 169.63 64.0916C169.63 63.6252 169.63 63.1587 169.63 62.6781C169.631 61.7329 169.631 60.7878 169.631 59.8426C169.631 59.3737 169.631 58.9049 169.631 58.4219C169.632 50.8301 169.638 43.2384 169.645 35.6466C169.653 27.8448 169.657 20.0429 169.657 12.2411C169.658 7.86371 169.659 3.48634 169.665 -0.891037C169.67 -4.61952 169.672 -8.34799 169.669 -12.0765C169.668 -13.9766 169.668 -15.8767 169.673 -17.7768C169.677 -19.5209 169.676 -21.2649 169.672 -23.0089C169.672 -23.6354 169.673 -24.2618 169.676 -24.8882C169.699 -30.4853 169.215 -36.0706 167.742 -41.4344C167.621 -41.8846 167.621 -41.8846 167.497 -42.3439C164.065 -54.5176 156.125 -64.7171 146.278 -70.5629C143.752 -72.0235 141.171 -73.176 138.467 -74.1149C138.158 -74.2237 138.158 -74.2237 137.842 -74.3347C134.178 -75.5421 130.474 -75.8147 126.678 -75.8025C126.344 -75.8024 126.344 -75.8024 126.004 -75.8022C122.24 -75.7893 118.697 -75.3892 115.068 -74.2061C114.855 -74.1397 114.643 -74.0733 114.424 -74.0049C103.634 -70.5597 94.394 -61.7845 88.8796 -50.7221C84.9736 -42.5399 81.7898 -30.891 84.1176 -21.6092C85.3802 -17.9645 87.4743 -14.8642 90.5538 -13.0628C94.3899 -11.1708 97.9474 -10.831 101.948 -12.4C105.284 -14.0637 107.55 -16.6893 109.091 -20.4347C109.85 -22.7107 110.101 -24.934 110.288 -27.3405C110.691 -32.5153 112.289 -37.1478 115.682 -40.773C119.514 -44.2167 123.816 -45.797 128.676 -45.2458C132.161 -44.5799 135.177 -43.1749 137.691 -40.2713C137.901 -40.2713 138.111 -40.2713 138.328 -40.2713C138.452 -39.9616 138.452 -39.9616 138.579 -39.6456C139 -38.7361 139.5 -37.9683 140.041 -37.1469C141.212 -35.261 141.897 -33.3583 142.47 -31.149C142.555 -30.8406 142.555 -30.8406 142.641 -30.526C142.845 -29.3719 142.83 -28.2672 142.832 -27.0898C142.832 -26.8265 142.833 -26.5632 142.834 -26.2919C142.836 -25.4048 142.836 -24.5178 142.836 -23.6308C142.837 -22.9902 142.838 -22.3497 142.839 -21.7091C142.843 -19.9451 142.844 -18.1811 142.845 -16.4171C142.846 -14.516 142.849 -12.6149 142.852 -10.7137C142.858 -6.12019 142.861 -1.52666 142.864 3.06688C142.865 5.23001 142.867 7.39314 142.869 9.55627C142.874 16.7472 142.879 23.9382 142.881 31.1292C142.882 32.9956 142.882 34.862 142.883 36.7285C142.883 37.1923 142.883 37.6562 142.883 38.1342C142.886 45.6473 142.894 53.1604 142.905 60.6735C142.915 68.3871 142.921 76.1006 142.922 83.8141C142.923 88.145 142.925 92.4758 142.933 96.8067C142.94 100.495 142.943 104.184 142.94 107.873C142.938 109.754 142.939 111.636 142.945 113.517C142.951 115.242 142.95 116.966 142.946 118.69C142.945 119.312 142.946 119.934 142.95 120.556C142.975 125.027 142.653 129.287 140.379 133.097C140.195 133.414 140.01 133.731 139.82 134.058C139.314 134.873 139.314 134.873 138.738 135.489C138.328 135.971 138.328 135.971 138.328 136.7C138.053 136.849 138.053 136.849 137.773 137C137.045 137.436 136.408 137.934 135.739 138.479C131.96 141.378 127.827 142.279 123.352 141.444C119.202 140.344 115.525 137.805 113.125 133.746C110.225 128.386 110.149 123.224 110.165 117.087C110.164 116.291 110.162 115.496 110.16 114.701C110.157 112.996 110.156 111.291 110.157 109.586C110.159 106.885 110.154 104.183 110.148 101.482C110.136 95.7447 110.132 90.0075 110.129 84.2703C110.125 78.0812 110.12 71.8922 110.106 65.7031C110.1 63.0235 110.099 60.344 110.101 57.6644C110.102 55.9901 110.098 54.3158 110.094 52.6414C110.093 51.8716 110.093 51.1018 110.095 50.332C110.132 36.063 106.164 23.2661 97.3236 12.957C92.6144 7.63168 87.0355 3.79597 80.7744 1.34898C80.5242 1.25032 80.274 1.15166 80.0163 1.05C75.5718 -0.577423 71.121 -1.02638 66.4885 -1.00462C65.9501 -1.00615 65.4117 -1.00815 64.8733 -1.01059C63.41 -1.01581 61.9468 -1.01433 60.4835 -1.01161C58.8993 -1.00989 57.315 -1.01447 55.7308 -1.01819C52.6341 -1.02444 49.5376 -1.02478 46.4409 -1.02286C43.9239 -1.02139 41.4068 -1.02193 38.8897 -1.02386C38.5307 -1.02414 38.1716 -1.02441 37.8017 -1.02469C37.0722 -1.02525 36.3426 -1.0258 35.6131 -1.02637C28.7841 -1.03137 21.9551 -1.0294 15.1261 -1.02521C8.88144 -1.02159 2.63683 -1.02631 -3.60781 -1.03503C-10.0276 -1.04393 -16.4473 -1.04744 -22.867 -1.04501C-26.4682 -1.04375 -30.0694 -1.04456 -33.6706 -1.05095C-36.7342 -1.05632 -39.7977 -1.05655 -42.8613 -1.05019C-44.4235 -1.04709 -45.9856 -1.04631 -47.5478 -1.0519C-48.979 -1.05695 -50.41 -1.05521 -51.8412 -1.04816C-52.3576 -1.04678 -52.8741 -1.04785 -53.3905 -1.05167C-57.5045 -1.07986 -61.0942 -0.371429 -64.3245 2.78574C-67.0518 5.99792 -68.398 9.49869 -68.5464 13.9605C-68.4841 18.283 -67.2046 21.8498 -64.6916 25.0683C-62.3869 27.5775 -59.3622 29.1022 -56.1955 29.1054C-55.9828 29.1061 -55.7701 29.1068 -55.5509 29.1075C-54.833 29.1095 -54.1152 29.1088 -53.3973 29.1082C-52.8794 29.1091 -52.3615 29.1101 -51.8436 29.1113C-50.4164 29.1142 -48.9891 29.1147 -47.5619 29.115C-46.024 29.1157 -44.4861 29.1184 -42.9482 29.121C-40.2813 29.1252 -37.6143 29.1282 -34.9474 29.1305C-30.7298 29.1343 -26.5123 29.1418 -22.2947 29.1499C-20.8519 29.1526 -19.409 29.1553 -17.9662 29.158C-17.6056 29.1587 -17.2449 29.1594 -16.8734 29.1601C-12.7659 29.1677 -8.65843 29.1746 -4.55096 29.1811C-4.1754 29.1817 -3.79984 29.1823 -3.4129 29.1829C2.66632 29.1925 8.74553 29.1993 14.8247 29.2054C21.0672 29.2118 27.3097 29.2223 33.5521 29.2364C37.4014 29.2449 41.2507 29.25 45.1 29.2507C47.7408 29.2515 50.3817 29.2563 53.0226 29.2641C54.5449 29.2684 56.0671 29.2711 57.5894 29.2689C58.9858 29.267 60.3822 29.2701 61.7786 29.2771C62.2811 29.2788 62.7835 29.2786 63.286 29.2764C68.8678 29.2539 74.312 30.0649 78.5688 34.6381C81.5649 38.4242 83.2522 42.8176 83.2501 47.9082C83.2513 48.2307 83.2524 48.5531 83.2535 48.8853C83.2569 49.968 83.2581 51.0508 83.2593 52.1336C83.2613 52.9092 83.2635 53.6849 83.2658 54.4606C83.2704 56.1332 83.2742 57.8059 83.2772 59.4785C83.2822 62.1293 83.2898 64.78 83.2979 67.4308C83.3206 74.9695 83.3396 82.5083 83.3559 90.0471C83.365 94.2091 83.3763 98.3711 83.3899 102.533C83.3984 105.161 83.4041 107.79 83.4078 110.418C83.4107 112.065 83.4163 113.711 83.4225 115.358C83.4248 116.114 83.4262 116.87 83.4263 117.626C83.4276 121.298 83.4935 124.938 83.8037 128.596C83.8279 128.883 83.852 129.17 83.8769 129.466C85.0538 141.917 91.0635 153.7 99.4943 161.559C109.729 170.777 124.296 175.12 137.053 171Z" fill="#FFF3F2"/>
</svg>
