<svg width="59" height="58" viewBox="0 0 59 58" fill="none" xmlns="http://www.w3.org/2000/svg">
<path d="M10.9949 0.788574H48.6685C54.3803 0.788574 58.9984 5.40663 58.9984 11.1184V47.3337C58.9984 53.0455 54.3803 57.6636 48.6685 57.6636H10.9949C5.28309 57.6636 0.665039 53.0455 0.665039 47.3337V11.1184C0.665039 5.40663 5.28309 0.788574 10.9949 0.788574Z" fill="#330000"/>
<path d="M28.9339 34.9131H19.8922L18.045 40.6249C17.9964 40.8437 17.8019 40.9895 17.5832 40.9652H13.0137C12.7464 40.9652 12.6734 40.8194 12.7464 40.5277L20.5727 17.9965C20.6457 17.7534 20.7186 17.4861 20.8158 17.1944C20.913 16.684 20.9616 16.1493 20.9616 15.6145C20.9373 15.493 21.0345 15.3715 21.1561 15.3472C21.1804 15.3472 21.2047 15.3472 21.229 15.3472H27.4512C27.6457 15.3472 27.7429 15.4201 27.7672 15.5416L36.6387 40.5763C36.7116 40.8437 36.6387 40.9652 36.3957 40.9652H31.3158C31.1457 40.9895 30.9755 40.868 30.9269 40.6979L28.9339 34.9131ZM21.3019 29.9791H27.4755C27.3297 29.4687 27.1352 28.8611 26.9165 28.2291C26.6977 27.5729 26.479 26.868 26.2602 26.1388C26.0172 25.3854 25.7984 24.6562 25.5554 23.9027C25.3123 23.1493 25.0936 22.4444 24.8991 21.7395C24.7047 21.059 24.5345 20.427 24.3644 19.8437H24.3158C24.097 20.8888 23.8297 21.934 23.4894 22.9791C23.1248 24.1458 22.7602 25.3611 22.3714 26.5763C22.0311 27.8159 21.6665 28.9583 21.3019 29.9791Z" fill="#FF9A00"/>
<path d="M41.9368 19.5035C41.1347 19.5278 40.3569 19.2119 39.7736 18.6528C39.2146 18.0452 38.9229 17.2431 38.9472 16.4167C38.9229 15.5903 39.2389 14.8126 39.8222 14.2535C40.4055 13.6945 41.1833 13.4028 41.9854 13.4028C42.9333 13.4028 43.6625 13.6945 44.1972 14.2535C44.7319 14.8369 45.0236 15.6146 44.9993 16.4167C45.0236 17.2431 44.7319 18.0452 44.1486 18.6528C43.5896 19.2362 42.7632 19.5521 41.9368 19.5035ZM39.2146 40.6007V21.8855C39.2146 21.6424 39.3118 21.5452 39.5305 21.5452H44.343C44.5618 21.5452 44.659 21.6667 44.659 21.8855V40.6007C44.659 40.8681 44.5618 40.9896 44.343 40.9896H39.5792C39.3361 40.9896 39.2146 40.8438 39.2146 40.6007Z" fill="#FF9A00"/>
</svg>
