<svg width="65" height="66" viewBox="0 0 65 66" fill="none" xmlns="http://www.w3.org/2000/svg">
<path d="M55.3495 55.4853H45.7385V40.4338C45.7385 36.8447 45.6745 32.2243 40.7398 32.2243C35.7341 32.2243 34.9683 36.1348 34.9683 40.1725V55.4843H25.3573V24.5324H34.5838V28.7623H34.713C36.5943 25.5455 40.0924 23.6242 43.8163 23.7625C53.5574 23.7625 55.3535 30.1699 55.3535 38.5056L55.3495 55.4853ZM14.513 20.3015C11.4327 20.302 8.93518 17.8053 8.93463 14.725C8.93407 11.6446 11.4307 9.14706 14.511 9.14651C17.5913 9.14595 20.0888 11.6426 20.0893 14.723C20.0896 16.2022 19.5022 17.621 18.4565 18.6671C17.4107 19.7133 15.9922 20.3012 14.513 20.3015ZM19.3184 55.4853H9.69749V24.5324H19.3184V55.4853ZM60.1409 0.221145H4.86799C2.25568 0.191665 0.113425 2.28423 0.081543 4.89657V60.4C0.112333 63.0136 2.25442 65.1082 4.86799 65.0808H60.1409C62.7597 65.1133 64.9102 63.0187 64.9464 60.4V4.89257C64.9091 2.27506 62.7584 0.182619 60.1409 0.21672" fill="#0A66C2"/>
</svg>
