<svg width="59" height="59" viewBox="0 0 59 59" fill="none" xmlns="http://www.w3.org/2000/svg">
<g clip-path="url(#clip0_307_12841)">
<path d="M3.09277 3.98975H56.4678V55.9064H3.09277V3.98975Z" fill="url(#paint0_radial_307_12841)"/>
<path d="M3.09268 12.323C3.09268 7.72062 6.82364 3.98965 11.426 3.98965H48.1343C52.7367 3.98965 56.4677 7.72061 56.4677 12.323V47.573C56.4677 52.1754 52.7367 55.9063 48.1343 55.9063H11.426C6.82364 55.9063 3.09268 52.1754 3.09268 47.573V12.323ZM0.666016 49.9997C0.666016 54.602 4.39698 58.333 8.99935 58.333H50.5494C55.1517 58.333 58.8827 54.602 58.8827 49.9996V9.89632C58.8827 5.29395 55.1517 1.56299 50.5494 1.56299H8.99935C4.39698 1.56299 0.666016 5.29395 0.666016 9.89632V49.9997ZM39.9244 24.8613C38.011 24.8613 37.3577 25.8297 37.3577 26.6347C37.3577 27.5097 37.7893 28.1163 40.3677 29.4463C44.171 31.2897 45.361 33.063 45.361 35.653C45.361 39.538 42.3977 41.6263 38.396 41.6263C36.5431 41.6263 34.9148 41.294 33.8421 40.8027C33.5585 40.6728 33.2277 40.5149 33.2277 40.203V36.6213C33.2277 36.3763 33.3443 36.3063 33.5193 36.423C35.0477 37.4146 36.7977 37.858 38.396 37.858C40.3093 37.858 41.1143 37.053 41.1143 35.968C41.1143 35.093 40.5543 34.323 38.1043 33.0513C34.6627 31.4063 33.2277 29.738 33.2277 26.938C33.2277 23.8113 35.6777 21.2097 39.9244 21.2097C42.0127 21.2097 43.471 21.5247 44.2643 21.8863C44.4627 22.003 44.5093 22.2013 44.5093 22.3763V25.7013C44.5093 26.0546 43.9995 25.8439 43.6837 25.6857C42.6464 25.1662 41.2854 24.8613 39.9244 24.8613ZM19.0619 25.7818C19.0633 26.8907 19.9155 27.7897 21.0243 27.7897C23.8593 27.7897 26.531 26.798 26.531 22.9363C26.531 19.8563 24.6177 18.3047 21.386 18.3047C20.0777 18.3047 19.054 19.401 19.0556 20.7093L19.0619 25.7818ZM14.736 14.863C14.736 14.688 15.0743 14.5713 15.2727 14.5713C16.8243 14.5013 19.1343 14.4547 21.526 14.4547C28.246 14.4547 30.871 18.1413 30.871 22.843C30.871 29.003 26.4027 31.6513 20.9193 31.6513C19.8751 31.6513 19.0293 32.4512 19.0293 33.4954V40.9146C19.0293 41.113 18.9593 41.2063 18.7377 41.2063H15.0277C14.8293 41.2063 14.736 41.1363 14.736 40.9146V14.863Z" fill="#31C5F0"/>
</g>
<defs>
<radialGradient id="paint0_radial_307_12841" cx="0" cy="0" r="1" gradientUnits="userSpaceOnUse" gradientTransform="translate(20.6846 15.6376) scale(40.559 39.2685)">
<stop stop-color="#34364E" stop-opacity="0.98"/>
<stop offset="1" stop-color="#0C0824"/>
</radialGradient>
<clipPath id="clip0_307_12841">
<rect width="58.3333" height="58.3333" fill="white" transform="translate(0.666504)"/>
</clipPath>
</defs>
</svg>
