<svg width="66" height="66" viewBox="0 0 66 66" fill="none" xmlns="http://www.w3.org/2000/svg">
<rect x="0.974609" y="0.216309" width="64.8649" height="64.8649" rx="4.6332" fill="white"/>
<g clip-path="url(#clip0_308_12886)">
<path d="M7.97363 32.2167C7.97363 42.4538 14.1295 51.2483 22.9383 55.1149C22.868 53.3692 22.9258 51.2735 23.3734 49.3741C23.8541 47.3446 26.5902 35.7515 26.5902 35.7515C26.5902 35.7515 25.7916 34.1552 25.7916 31.796C25.7916 28.0911 27.9389 25.3241 30.6131 25.3241C32.8871 25.3241 33.9857 27.0321 33.9857 29.0774C33.9857 31.3634 32.5277 34.7827 31.7779 37.9497C31.1516 40.6017 33.1076 42.7647 35.7238 42.7647C40.4605 42.7647 43.6508 36.681 43.6508 29.4728C43.6508 23.9935 39.9603 19.8923 33.248 19.8923C25.6645 19.8923 20.94 25.5478 20.94 31.8649C20.94 34.0431 21.5822 35.579 22.5881 36.7685C23.0506 37.3147 23.1148 37.5345 22.9475 38.1618C22.8275 38.6218 22.5521 39.7292 22.4381 40.1681C22.2717 40.8013 21.7586 41.0276 21.1863 40.7938C17.6934 39.3679 16.0666 35.5427 16.0666 31.2427C16.0666 24.1409 22.0561 15.6253 33.9342 15.6253C43.4791 15.6253 49.7613 22.5323 49.7613 29.9466C49.7613 39.7538 44.309 47.0806 36.2719 47.0806C33.5728 47.0806 31.034 45.6216 30.1643 43.9644C30.1643 43.9644 28.7129 49.7245 28.4055 50.8368C27.8754 52.7644 26.8379 54.6909 25.8893 56.1925C28.1377 56.8561 30.5129 57.2177 32.9746 57.2177C46.7801 57.2177 57.9738 46.0245 57.9738 32.2167C57.9738 18.4095 46.7801 7.21631 32.9746 7.21631C19.1678 7.21631 7.97363 18.4095 7.97363 32.2167Z" fill="#CB1F27"/>
</g>
<defs>
<clipPath id="clip0_308_12886">
<rect width="50" height="50" fill="white" transform="translate(7.97363 7.21631)"/>
</clipPath>
</defs>
</svg>
